{
  "accessors": [
    {
      "bufferView": 2,
      "componentType": 5126,
      "count": 1068,
      "max": [0.17466500401496887, 0.17466500401496887, -0.0017229999648407102],
      "min": [
        -0.17466500401496887, -0.17466500401496887, -0.0017229999648407102
      ],
      "type": "VEC3"
    },
    {
      "bufferView": 2,
      "byteOffset": 12816,
      "componentType": 5126,
      "count": 1068,
      "max": [0, -0, -1],
      "min": [0, -0, -1],
      "type": "VEC3"
    },
    {
      "bufferView": 3,
      "componentType": 5126,
      "count": 1068,
      "max": [0.99999338388442993, 0.98543071746826172, 0, 1],
      "min": [0.17007738351821899, -0.93793666362762451, 0, 1],
      "type": "VEC4"
    },
    {
      "bufferView": 1,
      "componentType": 5126,
      "count": 1068,
      "max": [0.56121200323104858, 0.13472199440002441],
      "min": [0.42937499284744263, 0.00064400001429021358],
      "type": "VEC2"
    },
    {
      "bufferView": 0,
      "componentType": 5125,
      "count": 3246,
      "max": [1067],
      "min": [0],
      "type": "SCALAR"
    },
    {
      "bufferView": 2,
      "byteOffset": 25632,
      "componentType": 5126,
      "count": 65532,
      "max": [0.17466500401496887, 0.17466500401496887, 0.011347999796271324],
      "min": [
        -0.17466500401496887, -0.17466500401496887, -0.0017229999648407102
      ],
      "type": "VEC3"
    },
    {
      "bufferView": 2,
      "byteOffset": 812016,
      "componentType": 5126,
      "count": 65532,
      "max": [1, 1, 1],
      "min": [-1, -1, -0.9986804723739624],
      "type": "VEC3"
    },
    {
      "bufferView": 3,
      "byteOffset": 17088,
      "componentType": 5126,
      "count": 65532,
      "max": [1, 1, 1, 1],
      "min": [-1, -1, -1, -1],
      "type": "VEC4"
    },
    {
      "bufferView": 1,
      "byteOffset": 8544,
      "componentType": 5126,
      "count": 65532,
      "max": [0.99816900491714478, 0.9993559718132019],
      "min": [0.00064400001429021358, 0.00064400001429021358],
      "type": "VEC2"
    },
    {
      "bufferView": 0,
      "byteOffset": 12984,
      "componentType": 5125,
      "count": 354807,
      "max": [65531],
      "min": [0],
      "type": "SCALAR"
    },
    {
      "bufferView": 2,
      "byteOffset": 1598400,
      "componentType": 5126,
      "count": 7572,
      "max": [0.17314399778842926, 0.17184799909591675, 0.016016000881791115],
      "min": [
        -0.17264500260353088, -0.17184799909591675, -0.0017229999648407102
      ],
      "type": "VEC3"
    },
    {
      "bufferView": 2,
      "byteOffset": 1689264,
      "componentType": 5126,
      "count": 7572,
      "max": [0.99999749660491943, 0.99999797344207764, 1],
      "min": [-0.99999749660491943, -0.99999797344207764, -0.81560087203979492],
      "type": "VEC3"
    },
    {
      "bufferView": 3,
      "byteOffset": 1065600,
      "componentType": 5126,
      "count": 7572,
      "max": [1, 0.99964410066604614, 0.99999701976776123, 1],
      "min": [-1, -0.99964767694473267, -0.99999809265136719, -1],
      "type": "VEC4"
    },
    {
      "bufferView": 1,
      "byteOffset": 532800,
      "componentType": 5126,
      "count": 7572,
      "max": [0.99580097198486328, 0.99883997440338135],
      "min": [0.0056520001962780952, 0.0020439999643713236],
      "type": "VEC2"
    },
    {
      "bufferView": 0,
      "byteOffset": 1432212,
      "componentType": 5125,
      "count": 33963,
      "max": [7571],
      "min": [0],
      "type": "SCALAR"
    }
  ],
  "asset": {
    "extras": {
      "author": "Life_is_awsome (https://sketchfab.com/Life_is_awsome)",
      "license": "CC-BY-4.0 (http://creativecommons.org/licenses/by/4.0/)",
      "source": "https://sketchfab.com/3d-models/chess-f004f7515fc544788143f7c799d1c598",
      "title": "CHESS"
    },
    "generator": "Sketchfab-8.98.0",
    "version": "2.0"
  },
  "bufferViews": [
    {
      "buffer": 0,
      "byteLength": 1568064,
      "byteOffset": 0,
      "name": "floatBufferViews",
      "target": 34963
    },
    {
      "buffer": 0,
      "byteLength": 593376,
      "byteOffset": 1568064,
      "byteStride": 8,
      "name": "floatBufferViews",
      "target": 34962
    },
    {
      "buffer": 0,
      "byteLength": 1780128,
      "byteOffset": 2161440,
      "byteStride": 12,
      "name": "floatBufferViews",
      "target": 34962
    },
    {
      "buffer": 0,
      "byteLength": 1186752,
      "byteOffset": 3941568,
      "byteStride": 16,
      "name": "floatBufferViews",
      "target": 34962
    }
  ],
  "buffers": [
    {
      "byteLength": 5128320,
      "uri": "chessboard.bin"
    }
  ],
  "images": [
    {
      "uri": "textures/LAST.001_baseColor.png"
    },
    {
      "uri": "textures/LAST.001_metallicRoughness.png"
    },
    {
      "uri": "textures/LAST.001_normal.png"
    }
  ],
  "materials": [
    {
      "doubleSided": true,
      "name": "LAST.001",
      "normalTexture": {
        "index": 2,
        "scale": 1,
        "texCoord": 0
      },
      "pbrMetallicRoughness": {
        "baseColorFactor": [1, 1, 1, 1],
        "baseColorTexture": {
          "index": 0,
          "texCoord": 0
        },
        "metallicFactor": 1,
        "metallicRoughnessTexture": {
          "index": 1,
          "texCoord": 0
        },
        "roughnessFactor": 1
      }
    }
  ],
  "meshes": [
    {
      "primitives": [
        {
          "attributes": {
            "NORMAL": 1,
            "POSITION": 0,
            "TANGENT": 2,
            "TEXCOORD_0": 3
          },
          "indices": 4,
          "material": 0,
          "mode": 4
        }
      ]
    },
    {
      "primitives": [
        {
          "attributes": {
            "NORMAL": 6,
            "POSITION": 5,
            "TANGENT": 7,
            "TEXCOORD_0": 8
          },
          "indices": 9,
          "material": 0,
          "mode": 4
        }
      ]
    },
    {
      "primitives": [
        {
          "attributes": {
            "NORMAL": 11,
            "POSITION": 10,
            "TANGENT": 12,
            "TEXCOORD_0": 13
          },
          "indices": 14,
          "material": 0,
          "mode": 4
        }
      ]
    }
  ],
  "nodes": [
    {
      "children": [1],
      "name": "RootNode (gltf orientation matrix)",
      "rotation": [-0.70710678118654746, -0, -0, 0.70710678118654757]
    },
    {
      "children": [2],
      "name": "RootNode (model correction matrix)"
    },
    {
      "children": [3, 4, 5],
      "name": "CHESS_MP_triangle.obj.cleaner.materialmerger.gles"
    },
    {
      "mesh": 0,
      "name": ""
    },
    {
      "mesh": 1,
      "name": ""
    },
    {
      "mesh": 2,
      "name": ""
    }
  ],
  "samplers": [
    {
      "magFilter": 9729,
      "minFilter": 9987,
      "wrapS": 10497,
      "wrapT": 10497
    }
  ],
  "scene": 0,
  "scenes": [
    {
      "name": "OSG_Scene",
      "nodes": [0]
    }
  ],
  "textures": [
    {
      "sampler": 0,
      "source": 0
    },
    {
      "sampler": 0,
      "source": 1
    },
    {
      "sampler": 0,
      "source": 2
    }
  ]
}
